<svg width="876" height="292" viewBox="0 0 876 292" fill="none" xmlns="http://www.w3.org/2000/svg">
<path d="M28.1543 229.256L65.157 60.3306H4.02203L16.8926 0H209.146L195.471 60.3306H134.336L97.3333 229.256H28.1543Z" fill="#114E99"/>
<path d="M344.286 229.256L374.854 91.7025L292.804 229.256H262.237L241.322 91.7025L210.755 229.256H141.576L192.253 0H285.565L301.653 110.204L366.006 0H464.143L413.466 229.256H344.286Z" fill="#114E99"/>
<path d="M563.085 229.256L546.997 156.86H518.843L502.755 229.256H433.576L484.253 0H595.262C637.091 0 672.485 27.3499 672.485 69.1791C672.485 109.399 645.939 140.771 616.176 152.033L638.7 229.256H563.085Z" fill="#114E99"/>
<path d="M648.353 192.253L689.377 142.38C705.466 163.295 737.642 177.774 768.209 177.774C781.08 177.774 786.711 172.143 786.711 168.121C786.711 148.815 677.311 149.62 677.311 80.4408C677.311 40.2204 710.292 0 775.449 0C813.256 0 850.259 12.8705 875.196 38.6116L833.366 86.876C814.865 67.5702 785.102 58.7218 763.383 58.7218C754.534 58.7218 748.904 62.7438 748.904 68.3747C748.904 86.876 859.107 87.6804 859.107 154.446C859.107 201.906 821.3 237.3 761.774 237.3C714.314 237.3 670.876 219.603 648.353 192.253Z" fill="#114E99"/>
<path d="M503.559 67.5703H545.388L558.259 27.3499L571.129 67.5703H613.763L579.174 91.7025L592.848 132.727L558.259 107.791L525.278 131.923L537.344 91.7025L503.559 67.5703Z" fill="white"/>
<path d="M858.303 292H0L17.697 268.672H876L858.303 292Z" fill="#D6001C"/>
</svg>
